<svg width="172" height="20" fill="none" xmlns="http://www.w3.org/2000/svg"><path fill="#fff" d="M0 0h172v20H0z"/><path d="M91.861 5.128a.4.4 0 01.402-.406h5.098c2.597 0 4.745 2.152 4.745 4.734 0 2.654-2.148 4.83-4.721 4.83h-2.219v5.045a.416.416 0 01-.401.406h-2.502a.4.4 0 01-.402-.406V5.128zm5.311 6.05c.921 0 1.676-.742 1.676-1.698 0-.909-.755-1.578-1.676-1.578h-2.006v3.275h2.006zm5.996-6.05a.4.4 0 01.401-.406h2.526c.212 0 .401.191.401.406v11.453h5.052a.4.4 0 01.401.406v2.344a.4.4 0 01-.401.406h-7.979a.4.4 0 01-.401-.406V5.128zm9.796 14.059l6.633-14.441c.071-.12.212-.24.354-.24h.212c.142 0 .307.096.354.24l6.633 14.441c.118.287-.047.55-.354.55h-2.36c-.378 0-.543-.12-.732-.526l-.755-1.697h-5.76l-.755 1.721a.77.77 0 01-.756.526h-2.337c-.33 0-.495-.287-.377-.574zm8.71-4.59l-1.605-3.539h-.024l-1.581 3.539h3.21zm7.271-6.719h-3.022a.4.4 0 01-.401-.407V5.128a.4.4 0 01.401-.406h9.419a.4.4 0 01.401.406v2.343a.4.4 0 01-.401.407h-3.022V19.33a.416.416 0 01-.401.406h-2.549a.417.417 0 01-.402-.406V7.878h-.023zm7.648 9.827l.991-1.793c.165-.287.566-.24.732-.12.094.048 1.605 1.172 2.997 1.172.85 0 1.464-.526 1.464-1.291 0-.909-.732-1.578-2.172-2.176-1.817-.741-4.107-2.176-4.107-4.734 0-2.128 1.629-4.28 4.886-4.28 2.196 0 3.895 1.148 4.532 1.602.26.143.213.526.118.693l-1.085 1.65c-.142.24-.52.43-.732.287-.189-.096-1.747-1.291-3.022-1.291-.755 0-1.345.526-1.345 1.1 0 .789.637 1.386 2.313 2.08 1.653.67 4.273 1.984 4.273 4.901 0 2.2-1.889 4.447-5.004 4.447-2.762 0-4.273-1.147-4.769-1.65-.188-.19-.259-.286-.07-.597zm11.353-12.577a.4.4 0 01.402-.406h8.781a.4.4 0 01.401.406v2.343a.4.4 0 01-.401.407h-5.878v2.654h4.839c.212 0 .401.191.401.406v2.343a.4.4 0 01-.401.407h-4.839v2.893h5.878a.4.4 0 01.401.406v2.344a.4.4 0 01-.401.406h-8.781a.401.401 0 01-.402-.406V5.128zm11.307-.215c0-.215.189-.382.402-.382h.519l8.451 8.224h.023V5.128a.4.4 0 01.401-.406h2.55c.212 0 .401.191.401.406V19.57c0 .215-.189.382-.401.382h-.331c-.071 0-.236-.072-.283-.095l-8.38-8.512h-.023v8.01a.401.401 0 01-.402.406h-2.525a.417.417 0 01-.402-.406V4.913zM27.822 4.865a.402.402 0 01.377-.334h.33c.095 0 .308.095.355.215l4.91 9.277h.047l4.91-9.277c.07-.12.26-.215.354-.215h.33c.165 0 .354.143.378.334l2.384 14.418c.047.287-.142.478-.401.478h-2.502c-.19 0-.378-.167-.402-.335l-.944-6.623h-.047l-3.564 6.958c-.071.12-.26.239-.355.239h-.377c-.118 0-.307-.096-.354-.24l-3.588-6.957h-.047l-.92 6.623a.41.41 0 01-.402.335h-2.479c-.26 0-.448-.191-.401-.478l2.408-14.418zm22.566-.358c4.249 0 7.624 3.467 7.624 7.746 0 4.304-3.399 7.7-7.624 7.7-4.249 0-7.6-3.42-7.6-7.7s3.351-7.746 7.6-7.746zm-4.296-2.75c0-.837.66-1.506 1.487-1.506.826 0 1.51.67 1.51 1.506 0 .837-.684 1.53-1.51 1.53a1.511 1.511 0 01-1.487-1.53zm4.296 14.776c2.337 0 4.249-1.937 4.249-4.28 0-2.367-1.912-4.303-4.25-4.303-2.312 0-4.224 1.96-4.224 4.303 0 2.344 1.912 4.28 4.225 4.28zm1.298-14.776A1.49 1.49 0 0153.173.251c.826 0 1.51.67 1.51 1.506 0 .837-.684 1.53-1.51 1.53a1.527 1.527 0 01-1.487-1.53zm10.032 6.121h-3.021a.4.4 0 01-.402-.407V5.128a.4.4 0 01.402-.406h9.418a.4.4 0 01.401.406v2.343a.4.4 0 01-.401.407h-3.021V19.33a.416.416 0 01-.402.406h-2.549a.416.416 0 01-.401-.406V7.878h-.024zm8.049-2.75a.4.4 0 01.401-.406h8.781a.4.4 0 01.402.406v2.343a.4.4 0 01-.402.407h-5.877v2.654h4.839c.212 0 .401.191.401.406v2.343a.4.4 0 01-.401.407h-4.84v2.893h5.878a.4.4 0 01.402.406v2.344a.4.4 0 01-.402.406h-8.78a.4.4 0 01-.402-.406V5.128zm10.906 12.577l.991-1.793c.165-.287.567-.24.732-.12.094.048 1.605 1.172 2.998 1.172.85 0 1.463-.526 1.463-1.291 0-.909-.731-1.578-2.171-2.176-1.818-.741-4.108-2.176-4.108-4.734 0-2.128 1.63-4.28 4.887-4.28 2.195 0 3.894 1.148 4.532 1.602.26.143.212.526.118.693l-1.086 1.65c-.142.24-.52.43-.732.287-.189-.096-1.747-1.291-3.021-1.291-.756 0-1.346.526-1.346 1.1 0 .789.638 1.386 2.313 2.08 1.653.67 4.273 1.984 4.273 4.901 0 2.2-1.888 4.447-5.004 4.447-2.762 0-4.273-1.147-4.768-1.65-.19-.19-.236-.286-.071-.597zM19.277.586C16.35-.873 12.88.49 11.51 3.598a6.706 6.706 0 00-.543 2.989l-.071 13.078 9.536-8.583c.709-.574 1.275-1.339 1.676-2.248 1.37-3.108.095-6.814-2.832-8.248zM17.105 9.05c-1.605 0-2.903-1.387-2.903-3.085 0-1.697 1.298-3.084 2.903-3.084s2.903 1.387 2.903 3.084c.024 1.698-1.298 3.085-2.903 3.085zM9.906 5.439c-1.133-2.773-4.178-4.04-6.799-2.845C.487 3.814-.717 7.04.44 9.814a5.457 5.457 0 001.558 2.129l8.356 7.722V7.95c0-.837-.118-1.698-.448-2.511zM5.16 10.46c-1.558 0-2.809-1.339-2.809-2.989S3.602 4.483 5.16 4.483c1.558 0 2.809 1.339 2.809 2.988 0 1.65-1.251 2.99-2.809 2.99z" fill="#E74C3C"/></svg>